# xmcd
#
# Track frame offsets:
#	150
#	32320
#	63407
#	93509
#	119580
#	143361
#	173266
#	206749
#	240365
#	265759
#	293456
#
# Disc length: 4286 seconds
#
# Revision: 0
# Processed by: cddbd v1.5.1PL0 Copyright (c) Steve Scherf et al.
# Submitted via: EasyCDDAExtractor 8.0.2.1
#
DISCID=8710bc0b
DTITLE=Various Artist - DJ PROMOTION CD POOL TECHNO 29
DYEAR=1900
DGENRE=
TTITLE0=BUSFACE FT. MADEMOISELLE E.B. - CIRCLES(JUST MY GOOD TIME
TTITLE1=AGE PEE - WHEN THE RAIN BEGINS TO FALL
TTITLE2=BLUE NATURE FT.IVIE - LOVE OR DIE
TTITLE3=SHANA VANGUARDE - MAMMA MIA
TTITLE4=ANGEL CITY - SUNRISE
TTITLE5=MEGARA VS. DJ LEE - MUSICAL SOCIETY
TTITLE6=NARCOTIC TRUST - WHEN THE DOWN BREAK
TTITLE7=DJ HOGAT - BABY CRY
TTITLE8=SASHA DITH FT. RUSSIAN GIRLS - RUSSIAN GIRLS
TTITLE9=FREEDOM FIVE FT. BOUNTY KILLER - EEEEAAOOWW
TTITLE10=FEIST - INSIDE AND OUT
EXTD=
EXTT0=
EXTT1=
EXTT2=
EXTT3=
EXTT4=
EXTT5=
EXTT6=
EXTT7=
EXTT8=
EXTT9=
EXTT10=
PLAYORDER=
